<?xml version="1.0" encoding="iso-8859-1"?>
<!-- Generator: Adobe Illustrator 19.0.0, SVG Export Plug-In . SVG Version: 6.00 Build 0)  -->
<svg version="1.1" id="Capa_1" xmlns="http://www.w3.org/2000/svg" xmlns:xlink="http://www.w3.org/1999/xlink" x="0px" y="0px"
	 viewBox="0 0 512 512" style="enable-background: new 0 0 512 512" xml:space="preserve">
<g fill="rgb(255, 255, 255)">
	<g>
		<path d="M 363.6 262.3 c -0.9 -3 -3.1 -5.5 -6.2 -6.6 c -0.6 -0.2 -5.5 -2 -13.2 -3.1 c 32.7 -34.8 21.9 -75.5 19.4 -83.4 c -0.9 -3 -3.1 -5.5 -6.2 -6.6 c -1.4 -0.5 -25.9 -9.1 -53.8 0.6 c 1.6 -6.5 2.5 -13.6 2.5 -21.4 c 0 -49.9 -37.8 -71.8 -45.3 -75.7 c -2.8 -1.5 -6.1 -1.6 -9 -0.3 c -1.9 0.9 -45.9 22 -45.9 76 c 0 7.8 0.9 14.9 2.5 21.4 c -27.9 -9.8 -52.5 -1.1 -53.9 -0.6 c -3 1.1 -5.3 3.6 -6.2 6.6 c -2.6 7.9 -13.4 48.6 19.4 83.4 c -7.7 1.1 -12.6 2.9 -13.2 3.1 c -3 1.1 -5.3 3.6 -6.2 6.6 c -2.6 8.1 -13.8 50.3 21.4 85.6 c 20.4 20.4 43.1 25.3 60 25.3 c 6.3 0 11.8 -0.7 16.1 -1.5 v 65.4 c 0 5.5 4.5 10 10 10 c 5.5 0 10 -4.5 10 -10 v -65.5 c 4.3 0.8 9.9 1.5 16.2 1.5 c 17 0 39.6 -4.9 60 -25.3 C 377.5 312.6 366.2 270.4 363.6 262.3 z M 245.9 340.5 c -0.2 4.5 -0.9 8.4 -1.5 11.1 c -10.7 2.4 -37.4 5.2 -60.5 -17.9 c -22.7 -22.7 -20.3 -49 -17.8 -60.5 c 6.7 -1.5 19.8 -3.1 34.4 1.6 c 1 0.4 1.9 0.7 2.9 1 c 7.7 2.9 15.7 7.7 23.2 15.2 c 14.4 14.4 18.7 30.3 19.4 42.7 V 340.5 z M 245.9 247.4 c -0.2 4.5 -0.9 8.4 -1.5 11.1 c -6.6 1.5 -19.4 3.1 -33.7 -1.3 c -1.4 -0.6 -2.9 -1.1 -4.3 -1.5 c -7.5 -2.9 -15.2 -7.7 -22.5 -15 c -22.7 -22.7 -20.3 -49 -17.8 -60.5 c 10.7 -2.3 37.5 -5.1 60.5 17.9 c 0.1 0.1 0.3 0.3 0.4 0.4 c 0.9 1 1.8 1.9 2.6 2.8 c 12 13.5 15.7 27.9 16.3 39.5 V 247.4 z M 256.1 197.2 c -3.1 -2 -7.7 -5.3 -12.2 -10.1 c -0.5 -0.5 -0.9 -1 -1.4 -1.5 c -8.4 -9.3 -16.5 -23.5 -16.5 -43.8 c 0 -32.6 20.9 -49.5 30.1 -55.4 c 9.9 6.3 30.2 23.2 30.2 55.4 c 0 19.1 -7.2 32.8 -15 42.1 c -1.6 1.6 -3.1 3.3 -4.6 4.9 C 262.7 192.7 258.8 195.5 256.1 197.2 z M 266 244.2 c 0 -11.7 3 -27.3 15.5 -41.9 c 1.5 -1.5 3 -3 4.4 -4.7 c 22.9 -22.6 49.4 -19.8 60 -17.5 c 2.5 11.5 4.9 37.8 -17.8 60.5 c -7.3 7.3 -15 12.1 -22.5 15 c -1.5 0.5 -2.9 1 -4.4 1.5 c -14.3 4.4 -27 2.8 -33.6 1.3 c -0.7 -3.3 -1.5 -8.2 -1.6 -14.1 C 266 244.3 266 244.3 266 244.2 z M 328 333.7 c -23.1 23.1 -49.8 20.3 -60.5 17.9 c -2.3 -10.6 -5.1 -37.5 17.9 -60.5 c 7.4 -7.4 15.1 -12.1 22.6 -15 c 1.4 -0.5 2.9 -1 4.3 -1.5 c 14.2 -4.4 27 -2.8 33.6 -1.4 C 348.4 284.6 350.8 311 328 333.7 z"/>
	</g>
</g>
<g fill="rgb(255, 255, 255)">
	<g>
		<path d="M 308.4 5.6 C 290.9 1.9 273 0 255 0 C 186.6 0 122.3 26.6 74 75 C 25.6 123.3 -1 187.6 -1 256 c 0 57 19.2 112.6 54.1 157.4 c -3.9 6.1 -6 13.2 -6 20.6 c 0 10.1 4 19.7 11.1 26.9 c 7.2 7.2 16.7 11.1 26.9 11.1 s 19.7 -4 26.9 -11.1 c 7.2 -7.2 11.1 -16.7 11.1 -26.9 c 0 -10.1 -4 -19.7 -11.1 -26.9 s -16.7 -11.1 -26.9 -11.1 c -6 0 -11.8 1.4 -17 4 C 36.4 358.9 19 308.1 19 256 C 19 125.9 124.9 20 255 20 c 16.6 0 33.1 1.7 49.2 5.1 c 5.4 1.1 10.7 -2.3 11.9 -7.7 C 317.2 12 313.8 6.7 308.4 5.6 z M 72.3 421.2 c 3.5 -3.5 8.1 -5.3 12.7 -5.3 s 9.2 1.8 12.7 5.3 c 3.4 3.4 5.3 7.9 5.3 12.7 s -1.9 9.3 -5.3 12.7 c -7 7 -18.4 7 -25.5 0 c -3.4 -3.4 -5.3 -7.9 -5.3 -12.7 S 68.9 424.6 72.3 421.2 z"/>
	</g>
</g>
<g fill="rgb(255, 255, 255)">
	<g>
		<path d="M 459.9 96.6 c 3.9 -6.1 6 -13.2 6 -20.6 c 0 -10.1 -4 -19.7 -11.1 -26.9 c -7.2 -7.2 -16.7 -11.1 -26.9 -11.1 c -10.1 0 -19.7 4 -26.9 11.1 s -11.1 16.7 -11.1 26.9 c 0 10.2 4 19.7 11.1 26.9 c 7.2 7.2 16.7 11.1 26.9 11.1 c 6 0 11.8 -1.4 17 -4 C 476.6 151.1 494 201.9 494 254 c 0 130.1 -105.9 236 -236 236 c -14 0 -28 -1.2 -41.7 -3.7 c -5.4 -1 -10.6 2.7 -11.6 8.1 c -1 5.4 2.7 10.6 8.1 11.6 C 227.6 508.7 242.8 510 258 510 c 68.4 0 132.7 -26.6 181 -75 S 514 322.4 514 254 C 514 197 494.8 141.4 459.9 96.6 z M 440.7 88.8 c -3.4 3.4 -7.9 5.3 -12.7 5.3 s -9.3 -1.9 -12.7 -5.3 c -7 -7 -7 -18.4 0 -25.5 c 3.4 -3.4 7.9 -5.3 12.7 -5.3 s 9.3 1.9 12.7 5.3 c 3.4 3.4 5.3 7.9 5.3 12.7 C 445.9 80.9 444.1 85.4 440.7 88.8 z"/>
	</g>
</g>
<g fill="rgb(255, 255, 255)">
	<g>
		<path d="M 168.1 475.1 l -3.8 9.3 l 3.7 -9.3 c -5.1 -2.1 -10.9 0.4 -13 5.5 c -2.1 5.1 0.4 10.9 5.5 13 l 0.3 0.1 c 1.2 0.5 2.4 0.7 3.6 0.7 c 4 0 7.8 -2.4 9.4 -6.4 C 175.8 482.8 173.3 477.1 168.1 475.1 z"/>
	</g>
</g>
<g fill="rgb(255, 255, 255)">
	<g>
		<path d="M 364.8 17.5 l -0.2 -0.1 c -5.1 -2.1 -10.9 0.4 -13 5.6 c -2.1 5.1 0.4 10.9 5.6 13 l 0.1 0 c 1.2 0.5 2.5 0.7 3.7 0.7 c 4 0 7.7 -2.4 9.3 -6.3 C 372.4 25.4 369.9 19.6 364.8 17.5 z"
			/>
	</g>
</g>
<g>
</g>
<g>
</g>
<g>
</g>
<g>
</g>
<g>
</g>
<g>
</g>
<g>
</g>
<g>
</g>
<g>
</g>
<g>
</g>
<g>
</g>
<g>
</g>
<g>
</g>
<g>
</g>
<g>
</g>
</svg>
