<svg height="512pt" viewBox="0 0 512 512" width="512pt" xmlns="http://www.w3.org/2000/svg"><path fill="rgb(228, 221, 221)" d="M 61.1 487.5 c 31.2 16.7 74.1 24.5 134.9 24.5 c 49.5 0 86.7 -5.1 115.6 -16 c 8.3 9.8 20.6 16 34.4 16 h 121 c 24.8 0 45 -20.2 45 -45 c 0 -11.5 -4.4 -22 -11.5 -30 c 7.1 -8 11.5 -18.5 11.5 -30 s -4.4 -22 -11.5 -30 c 7.1 -8 11.5 -18.5 11.5 -30 s -4.4 -22 -11.5 -30 c 7.1 -8 11.5 -18.5 11.5 -30 c 0 -24.8 -20.2 -45 -45 -45 h -121 c -1.5 0 -2.9 0.1 -4.3 0.2 c -15.1 -18.2 -32.7 -33.5 -52.1 -45.3 c 7.1 -8 11.5 -18.5 11.5 -30 c 0 -17.9 -10.5 -33.4 -25.7 -40.7 l 25 -76.7 c 1.5 -4.6 0.7 -9.6 -2.1 -13.5 c -2.8 -3.9 -7.3 -6.2 -12.1 -6.2 h -47.6 c -6.2 -17.5 -22.9 -30 -42.4 -30 c -19.6 0 -36.2 12.5 -42.4 30 h -47.6 c -4.8 0 -9.3 2.3 -12.1 6.2 c -2.8 3.9 -3.6 8.9 -2.1 13.5 l 25 76.7 c -15.2 7.2 -25.7 22.7 -25.7 40.7 c 0 11.5 4.3 22 11.5 30 c -60.2 36.3 -102.5 105.3 -102.5 180 c 0 51.6 20.6 88.8 61.1 110.5 z m 420.9 -140.5 c 0 8.3 -6.7 15 -15 15 h -121 c -8.3 0 -15 -6.7 -15 -15 s 6.7 -15 15 -15 h 121 c 8.3 0 15 6.7 15 15 z m 0 60 c 0 8.3 -6.7 15 -15 15 h -121 c -8.3 0 -15 -6.7 -15 -15 s 6.7 -15 15 -15 h 121 c 8.3 0 15 6.7 15 15 z m -15 75 h -121 c -8.3 0 -15 -6.7 -15 -15 s 6.7 -15 15 -15 h 121 c 8.3 0 15 6.7 15 15 s -6.7 15 -15 15 z m 15 -195 c 0 8.3 -6.7 15 -15 15 h -121 c -8.3 0 -15 -6.7 -15 -15 s 6.7 -15 15 -15 h 121 c 8.3 0 15 6.7 15 15 z m -226.4 -105 h -119.1 c -0.1 0 -0.3 0 -0.4 0 h 0 c -8.3 0 -15 -6.7 -15 -15 c 0 -8.3 6.7 -15 15 -15 h 0 c 0 0 0.1 0 0.1 0 h 119.8 c 0 0 0.1 0 0.1 0 h 0 c 8.3 0 15 6.7 15 15 c 0 8.3 -6.7 15 -15 15 h 0 c -0.1 0 -0.3 0 -0.4 0 z m -89.6 -122 c 8.3 0 15 -6.7 15 -15 c 0 -8.3 6.7 -15 15 -15 s 15 6.7 15 15 v 30 c 0 8.3 6.7 15 15 15 s 15 -6.7 15 -15 v -15 h 24.3 l -20.2 62 h -98.2 l -20.2 -62 z m -27.1 152 h 114.1 c 22.7 9.5 43.4 24.4 60.7 43.7 c -7.9 8.1 -12.7 19.1 -12.7 31.3 c 0 11.5 4.4 22 11.5 30 c -7.1 8 -11.5 18.5 -11.5 30 s 4.4 22 11.5 30 c -7.1 8 -11.5 18.5 -11.5 30 s 4.4 22 11.5 30 c -7.1 8 -11.5 18.5 -11.5 30 c 0 0.3 0 0.6 0 0.9 c -25.4 9.6 -59.2 14.1 -105 14.1 c -55.7 0 -94 -6.7 -120.7 -20.9 c -30.9 -16.5 -45.3 -43.3 -45.3 -84.1 c 0 -70.8 44.7 -138.2 108.9 -165 z m 0 0"/>
</svg>
