<svg xmlns="http://www.w3.org/2000/svg" viewBox="0 0 30 30">
  <path fill="rgba(173, 159, 159, 0.6)" d="M 4.6 16.9 c 0 -1.1 0.4 -2.2 1.1 -3.1 a 4.8 4.8 0 0 1 2.7 -1.7 c 0.3 -1.4 1 -2.5 2.1 -3.4 s 2.4 -1.3 3.8 -1.3 c 1.4 0 2.6 0.4 3.7 1.3 s 1.8 1.9 2.1 3.3 h 0.3 a 5 5 0 0 1 4.3 2.4 a 4.9 4.9 0 0 1 -4.1 7.5 H 9.4 a 4.9 4.9 0 0 1 -3.4 -1.5 a 4.8 4.8 0 0 1 -1.4 -3.4 z m 1.7 0 c 0 0.9 0.3 1.6 0.9 2.3 s 1.3 1 2.2 1 H 20.6 a 3.1 3.1 0 0 0 2.2 -1 a 3.2 3.2 0 0 0 -0.1 -4.5 a 3.2 3.2 0 0 0 -2.3 -1 h -1.6 c -0.1 0 -0.2 -0.1 -0.2 -0.2 l -0.1 -0.6 a 4.1 4.1 0 0 0 -1.4 -2.7 a 4.2 4.2 0 0 0 -2.9 -1.1 a 4.1 4.1 0 0 0 -2.9 1.1 a 4 4 0 0 0 -1.4 2.7 l -0.1 0.6 c 0 0.1 -0.1 0.2 -0.2 0.2 h -0.5 a 3.3 3.3 0 0 0 -3 3.2 z"/>
</svg>
