<svg height="512pt" viewBox="0 -29 512.001 512" width="512pt" xmlns="http://www.w3.org/2000/svg"><path d="M 460.9 165.3 c 7.2 -13.8 5.2 -31.5 -6.1 -43.2 c -8.7 -9 -20.8 -12.3 -32 -10 c -12.2 -39.4 -47.9 -68 -90.1 -68 c -3.7 0 -7.4 0.2 -11 0.7 c -17.5 -27 -47.3 -44.9 -81.1 -44.9 c -46.3 0 -85.1 33.4 -95 78.1 c -22.3 -6.1 -46.9 2.2 -61.1 22.6 c -6.5 9.3 -10 20 -10.7 30.7 c 0 0 -0.1 0 -0.1 0 c -40.7 0 -73.6 34.1 -73.6 76.1 c 0 42 33 76.1 73.6 76.1 c 8.9 0 17.4 -1.6 25.3 -4.6 c 1.8 3.1 3.9 5.9 6.5 8.6 c 16.5 17 43.1 17.1 59.6 0.2 c 17.9 22.7 45.1 37.2 75.6 37.2 c 33.2 0 62.5 -17.2 80.1 -43.4 c 2.5 5 5.7 9.7 9.7 13.8 c 20.7 21.4 54.3 21.4 75 0 c 6.8 -7.1 11.4 -15.6 13.7 -24.6 c 9.8 8 22.1 12.7 35.5 12.7 c 31.7 0 57.4 -26.5 57.4 -59.3 c 0 -30.6 -22.4 -55.7 -51.1 -58.9 z m 0 0" fill="#575d60"/><path d="M 460.9 165.3 c 7.2 -13.8 5.2 -31.5 -6.1 -43.2 c -8.7 -9 -20.8 -12.3 -32 -10 c -12.2 -39.4 -47.9 -68 -90.1 -68 c -3.7 0 -7.4 0.2 -11 0.7 c -17.5 -27 -47.3 -44.9 -81.1 -44.9 c -11.4 0 -22.3 2 -32.4 5.7 c 20 7.3 37.1 21.2 48.6 39.1 c 3.6 -0.4 7.3 -0.7 11 -0.7 c 42.2 0 78 28.6 90.1 68 c 11.2 -2.3 23.3 1 32 10 c 11.3 11.7 13.3 29.3 6.1 43.2 c 28.7 3.2 51.1 28.4 51.1 58.9 c 0 20.3 -9.9 38.2 -24.9 48.9 c 9.2 6.6 20.4 10.4 32.4 10.4 c 31.7 0 57.4 -26.5 57.4 -59.3 c 0 -30.6 -22.4 -55.7 -51.1 -58.9 z m 0 0" fill="#464c50"/><g fill="#ffffff"><path d="M 168.6 138.7 c -13.4 0 -20.8 7 -20.8 22.2 v 47 c 0 15.2 7.3 22.2 21.3 22.2 c 17.3 0 18.9 -11.3 19.8 -18.6 c 0.3 -3.1 2.7 -4.5 6.6 -4.5 c 4.4 0 6.6 1.4 6.6 7.3 c 0 15.5 -13 27.7 -33.9 27.7 c -18.3 0 -33.4 -9.2 -33.4 -34.1 v -47 c 0 -24.8 15.3 -34.1 33.6 -34.1 c 20.9 0 33.8 11.9 33.8 27.2 c 0 5.9 -2.2 7.2 -6.6 7.2 c -4.2 0 -6.4 -1.7 -6.6 -4.5 c -0.3 -6.3 -2.8 -18 -20.3 -18 z m 0 0"/><path d="M 216.3 207.9 v -47 c 0 -24.8 14.7 -34.1 33.6 -34.1 c 18.9 0 33.8 9.2 33.8 34.1 v 47 c 0 24.8 -14.8 34.1 -33.8 34.1 c -18.9 0 -33.6 -9.2 -33.6 -34.1 z m 54.2 -47 c 0 -15.2 -7.8 -22.2 -20.6 -22.2 s -20.5 7 -20.5 22.2 v 47 c 0 15.2 7.7 22.2 20.5 22.2 s 20.6 -7 20.6 -22.2 z m 0 0"/><path d="M 330.2 126.8 c 18.1 0 32.2 12.8 32.2 30.5 c 0 33.6 -51.6 44.4 -51.6 63.9 v 8 h 48 c 2.5 0 4.5 2.7 4.5 5.9 c 0 3 -2 5.9 -4.5 5.9 h -55.6 c -2.5 0 -5.9 -1.9 -5.9 -4.7 v -15.2 c 0 -25.6 52 -37.7 52 -63.4 c 0 -8.9 -5.9 -18.8 -19.1 -18.8 c -10 0 -17.7 5.5 -17.7 17 c 0 2.7 -2.5 5.2 -6.9 5.2 c -3.8 0 -5.9 -1.9 -5.9 -7.7 c 0 -15.8 13.8 -26.7 30.5 -26.7 z m 0 0"/></g><path d="M 106 353.1 c 0 20.4 -16.6 37 -37 37 c -20.4 0 -37 -16.6 -37 -37 c 0 -20.4 16.6 -37 37 -37 c 20.4 0 37 16.6 37 37 z m 0 0" fill="#d8d8d8"/><path d="M 472 350 c 0 15.6 -12.6 28.2 -28.2 28.2 c -15.6 0 -28.2 -12.6 -28.2 -28.2 c 0 -15.6 12.6 -28.2 28.2 -28.2 c 15.6 0 28.2 12.6 28.2 28.2 z m 0 0" fill="#e7eced"/><path d="M 350.2 433.6 c 0 11.6 -9.4 21 -21 21 c -11.6 0 -21 -9.4 -21 -21 c 0 -11.6 9.4 -21 21 -21 c 11.6 0 21 9.4 21 21 z m 0 0" fill="#d8d8d8"/><path d="M 239.4 394.6 c 0 15.4 -12.4 27.8 -27.8 27.8 c -15.4 0 -27.8 -12.4 -27.8 -27.8 c 0 -15.4 12.4 -27.8 27.8 -27.8 c 15.4 0 27.8 12.4 27.8 27.8 z m 0 0" fill="#e7eced"/></svg>
