<svg height="511pt" viewBox="0 -17 511.99979 511" width="511pt" xmlns="http://www.w3.org/2000/svg"><path transform="matrix(0,-1,1,0,17.2,494.8)" fill="rgb(255, 255, 255)" d="M 493.6 272.1 l -2.4 -7.1 l -45.3 -11 c 0.3 -4 0.4 -8 0.4 -12.1 c 0 -51.4 -22.7 -100.5 -62.3 -134.6 l -18.5 20.2 c 33.6 29 52.9 70.7 52.9 114.4 c 0 1.8 0 3.6 -0.1 5.3 l -29.4 -7.1 c -0.4 -28.1 -10.7 -55.4 -29.1 -77.1 l -21.4 17.3 c 12.8 15.1 20.5 33.6 22.4 53 l -30 -7.3 c -3.2 -13.3 -10.5 -25.1 -20.3 -34.2 l 45.6 -154.9 l -5.2 -5.6 c -22.1 -23.9 -54.7 -37.6 -89.3 -37.6 s -67.2 13.7 -89.3 37.6 l -5.2 5.6 l 12.8 43.6 c -10.1 4.9 -19.8 10.7 -29 17.3 c -31 22.6 -54.4 54.8 -65.9 90.6 l 26.6 8 c 12.6 -39.6 40.4 -71.2 76 -89.5 l 8.4 28.6 c -11 6.4 -21 14.4 -29.6 23.9 l 20.8 18.1 c 5.1 -5.5 10.8 -10.5 16.9 -14.6 l 8.5 29 c -9.8 9 -17 20.9 -20.3 34.1 l -30 7.2 c 1 -11.2 4 -22 8.9 -32.2 l -25.3 -11.5 c -7.7 15.9 -11.7 32.9 -12 50.5 l -102.3 24.7 l -2.4 7.1 c -10.3 30.5 -6.3 64.9 11 94.1 c 17.3 29.2 45.7 49.9 78 56.6 l 7.5 1.5 l 32.5 -32.6 c 30.3 19.8 66.1 30.5 103.1 30.5 c 12.7 0 25.4 -1.3 37.9 -3.8 l -5.7 -26.6 c -10.5 2.2 -21.4 3.2 -32.2 3.2 c -30.4 0 -59 -8.5 -83.3 -23.4 l 21.1 -21.1 c 18.4 10 39.6 15.8 62.2 15.8 v -27.1 c -14.9 0 -29.2 -3.3 -42 -9 l 21.5 -21.6 c 6.5 1.9 13.4 2.9 20.4 2.9 c 7.1 0 13.8 -1 20.2 -2.9 l 114.8 115.9 l 7.5 -1.5 c 32.3 -6.7 60.8 -27.2 78.2 -56.4 c 17.4 -29.2 21.4 -63.4 11.2 -94.1 z m -186.4 22.7 c 12.5 -10.2 21.4 -24.6 24.3 -40.8 l 137.6 33.5 c 5 21.5 1.2 44.8 -10.9 65.1 c -12.1 20.3 -30.9 35.2 -52.5 41.7 z m -109 -250.8 c 16.6 -15 39.3 -23.5 63.3 -23.5 c 24.1 0 46.8 8.5 63.3 23.5 l -39.1 132.6 c -7.6 -2.7 -15.8 -4.2 -24.2 -4.2 s -16.7 1.4 -24.2 4.2 z m -81.2 349.8 c -21.6 -6.5 -40.5 -21.4 -52.5 -41.7 s -15.8 -43.6 -10.7 -65.1 l 137.7 -33.2 c 3 16.4 11.7 30.6 24.2 40.9 z m 101.3 -152 c 0 -23.2 19.4 -42.1 43.3 -42.1 c 23.9 0 43.3 18.9 43.3 42.1 c 0 23.2 -19.4 42.1 -43.3 42.1 c -23.9 0 -43.3 -18.9 -43.3 -42.1 z m 0 0"/></svg>