<svg height="512pt" viewBox="0 -120 512 512" width="512pt" xmlns="http://www.w3.org/2000/svg"><path d="m192 224h16v40h-16zm0 0" fill="#857e87"/><path d="m384 32h-48l-104 72h256zm0 0" fill="#eceaec"/><path d="m336 32-104 72h128v-72zm0 0" fill="#dad8db"/><path d="m232 104h256v160h-256zm0 0" fill="#c8c5c9"/><path d="m272 224h16v40h-16zm0 0" fill="#857e87"/><path d="m232 224h16v40h-16zm0 0" fill="#857e87"/><path d="m432 104h56v160h-56zm0 0" fill="#dad8db"/><path d="m288 104h72v160h-72zm0 0" fill="#b6b1b7"/><path d="m336 8v24h48v-24c0-4.417969-3.582031-8-8-8h-32c-4.417969 0-8 3.582031-8 8zm0 0" fill="#dad8db"/><path d="m373.5 32h-13.5v72h72zm0 0" fill="#dad8db"/><path d="m346.5 32h13.5v72h-72zm0 0" fill="#c8c5c9"/><g fill="#857e87"><path d="m136 176h16v88h-16zm0 0"/><path d="m24 176h16v88h-16zm0 0"/><path d="m80 176h16v88h-16zm0 0"/></g><path d="m192 184h96l-48-32zm0 0" fill="#dad8db"/><path d="m24 72h128v112h-128zm0 0" fill="#dad8db"/><path d="m91.5625 24h-7.125c-2.863281 0-5.632812 1.023438-7.808594 2.890625l-52.628906 45.109375h128l-52.628906-45.109375c-2.175782-1.867187-4.945313-2.890625-7.808594-2.890625zm0 0" fill="#eceaec"/><path d="m83.199219 228.398438-59.199219-44.398438h128l-59.199219 44.398438c-2.84375 2.132812-6.757812 2.132812-9.601562 0zm0 0" fill="#c8c5c9"/><path d="m24 72h40v112h-40zm0 0" fill="#c8c5c9"/><path d="m112 72h40v112h-40zm0 0" fill="#eceaec"/><path d="m84.4375 24c-2.863281 0-5.632812 1.023438-7.808594 2.890625l-52.628906 45.109375h40l24-48zm0 0" fill="#dad8db"/><path d="m152 184h-128l59.199219 44.398438c1.113281.835937 2.421875 1.375 3.78125 1.539062l-6.453125-12.878906c-3.917969-7.839844 1.78125-17.058594 10.542968-17.058594h39.59375zm0 0" fill="#b6b1b7"/><path d="m504 272h-496c-4.421875 0-8-3.582031-8-8s3.578125-8 8-8h496c4.421875 0 8 3.582031 8 8s-3.578125 8-8 8zm0 0" fill="#dad8db"/><path d="m344 0h16v32h-24v-24c0-4.417969 3.582031-8 8-8zm0 0" fill="#c8c5c9"/><path d="m192 184h96v48h-96zm0 0" fill="#b6b1b7"/><path d="m192 184h32v48h-32zm0 0" fill="#ada7ae"/><path d="m240 152-16 32h-32zm0 0" fill="#c8c5c9"/><path d="m272 184h16v48h-16zm0 0" fill="#c8c5c9"/></svg>