<svg height="464pt" viewBox="-144 0 464 464" width="464pt" xmlns="http://www.w3.org/2000/svg"><path d="M 88 360 v -328 c 0 -17.7 -14.3 -32 -32 -32 s -32 14.3 -32 32 v 328 c -15.1 11.3 -24 29.1 -24 48 c 0 30.9 25.1 56 56 56 s 56 -25.1 56 -56 c 0 -18.9 -8.9 -36.7 -24 -48 z m 0 0" fill="rgb(227, 235, 241)"/><g fill="rgb(193, 204, 209)"><path d="M 168 336 h -48 c -4.4 0 -8 -3.6 -8 -8 s 3.6 -8 8 -8 h 48 c 4.4 0 8 3.6 8 8 s -3.6 8 -8 8 z m 0 0"/><path d="M 152 304 h -32 c -4.4 0 -8 -3.6 -8 -8 s 3.6 -8 8 -8 h 32 c 4.4 0 8 3.6 8 8 s -3.6 8 -8 8 z m 0 0"/><path d="M 168 272 h -48 c -4.4 0 -8 -3.6 -8 -8 s 3.6 -8 8 -8 h 48 c 4.4 0 8 3.6 8 8 s -3.6 8 -8 8 z m 0 0"/><path d="M 152 240 h -32 c -4.4 0 -8 -3.6 -8 -8 s 3.6 -8 8 -8 h 32 c 4.4 0 8 3.6 8 8 s -3.6 8 -8 8 z m 0 0"/><path d="M 168 208 h -48 c -4.4 0 -8 -3.6 -8 -8 s 3.6 -8 8 -8 h 48 c 4.4 0 8 3.6 8 8 s -3.6 8 -8 8 z m 0 0"/><path d="M 152 176 h -32 c -4.4 0 -8 -3.6 -8 -8 s 3.6 -8 8 -8 h 32 c 4.4 0 8 3.6 8 8 s -3.6 8 -8 8 z m 0 0"/><path d="M 168 144 h -48 c -4.4 0 -8 -3.6 -8 -8 s 3.6 -8 8 -8 h 48 c 4.4 0 8 3.6 8 8 s -3.6 8 -8 8 z m 0 0"/><path d="M 152 112 h -32 c -4.4 0 -8 -3.6 -8 -8 s 3.6 -8 8 -8 h 32 c 4.4 0 8 3.6 8 8 s -3.6 8 -8 8 z m 0 0"/><path d="M 168 80 h -48 c -4.4 0 -8 -3.6 -8 -8 s 3.6 -8 8 -8 h 48 c 4.4 0 8 3.6 8 8 s -3.6 8 -8 8 z m 0 0"/></g><path d="M 64 377 v -185 c 0 -4.4 -3.6 -8 -8 -8 s -8 3.6 -8 8 v 185 c -14.2 3.1 -24.2 15.7 -24 30.2 c 0 17.7 14.3 32 32 32 s 32 -14.3 32 -32 c 0.2 -14.5 -9.8 -27.1 -24 -30.2 z m 0 0" fill="rgb(255, 66, 66)"/></svg>
