<svg width="512" height="512" xmlns="http://www.w3.org/2000/svg">
 <g>
  <title>background</title>
  <rect x="-1" y="-1" width="514" height="514" id="canvas_background" fill="none"/>
 </g>

 <g>
  <title>Layer 1</title>
  <path transform="rotate(-12 439.77145385742176,233.49334716796866) " d="m517,219c0,141.38672 -114.61328,256 -256,256s-256,-114.61328 -256,-256s114.61328,-256 256,-256s256,114.61328 256,256zm0,0" fill="#ff633e" id="svg_1"/>
  <path d="m507.14844,305.77344l-251.14844,-252.09766s-122.90625,139.07422 -136.04297,238.08985c-6.66406,50.22656 10.86719,93.07421 41.46094,121.41015l98.76953,98.76953c122.48438,-1.96484 224.05469,-89.9375 246.96094,-206.17187zm0,0" fill="#ee2600" id="svg_2"/>
  <path d="m391.04297,288.76563c-13.13672,-99.01563 -136.04297,-238.08985 -136.04297,-238.08985s-122.90625,139.07422 -136.04297,238.08985c-12.07812,91.07031 55.35547,157.90625 136.04297,157.90625s148.12109,-66.83594 136.04297,-157.90625zm0,0" fill="#00ffea" id="svg_3"/>
  <path d="m252.99609,454.67578l0,-396.00781s122.90235,139.08203 136.04297,238.10547c12.07422,91.05468 -55.35547,157.90234 -136.04297,157.90234zm0,0" fill="#00ceb4" id="svg_4"/>
  <path d="m208.95313,284.50391c-5.57032,0 -10.73829,-0.95703 -15.51172,-2.86328c-4.76953,-1.91016 -8.91016,-4.49219 -12.40625,-7.75391c-3.5,-3.26172 -6.28516,-7.07813 -8.35157,-11.45313c-2.07031,-4.375 -3.10156,-9.10546 -3.10156,-14.19921c0,-4.92579 1.03125,-9.6211 3.10156,-14.07422c2.06641,-4.45313 4.85157,-8.26953 8.35157,-11.45313c3.49609,-3.17969 7.63672,-5.72656 12.40625,-7.63672c4.77343,-1.91015 9.9414,-2.86328 15.51172,-2.86328c5.40234,0 10.53515,0.95313 15.38671,2.86328c4.85157,1.91016 9.02735,4.45703 12.52735,7.63672c3.49609,3.1836 6.28125,7 8.35156,11.45313c2.0625,4.45312 3.10156,9.14843 3.10156,14.07422c0,5.09375 -1.03515,9.82421 -3.10156,14.19921c-2.07031,4.375 -4.85547,8.19141 -8.35156,11.45313c-3.5,3.26172 -7.67578,5.84375 -12.52735,7.75391c-4.85156,1.90625 -9.98437,2.86328 -15.38671,2.86328zm-26.00782,88.27734l67.28125,-78.49609l62.03516,-81.60157l14.55469,12.88282l-65.13672,77.07031l-64.17969,83.02734l-14.55469,-12.88281zm26.00782,-104.26562c2.38671,0 4.57031,-0.55469 6.55859,-1.66797c1.98828,-1.11328 3.77734,-2.58594 5.37109,-4.41407c1.58594,-1.82812 2.82032,-3.97656 3.69922,-6.44531c0.8711,-2.46094 1.3125,-5.04687 1.3125,-7.75391c0,-5.5625 -1.67187,-10.29687 -5.01172,-14.19531c-3.33984,-3.89453 -7.3164,-5.84375 -11.92968,-5.84375c-2.38672,0 -4.57422,0.5586 -6.5625,1.66797c-1.98829,1.11719 -3.78125,2.58594 -5.36719,4.41406c-1.59375,1.83203 -2.82813,3.9375 -3.69922,6.32422c-0.875,2.38672 -1.3125,4.92969 -1.3125,7.63281c0,5.57032 1.67187,10.34376 5.01172,14.31641c3.33594,3.97656 7.3125,5.96485 11.92969,5.96485zm92.09765,117.86718c-5.57031,0 -10.73828,-0.95312 -15.51172,-2.86328c-4.76953,-1.91015 -8.91015,-4.45312 -12.40625,-7.63672c-3.5,-3.17968 -6.28515,-6.95312 -8.35156,-11.33203c-2.06641,-4.37109 -3.10156,-9.10547 -3.10156,-14.19531c0,-5.08984 1.03515,-9.82031 3.10156,-14.19922c2.06641,-4.37109 4.85156,-8.1875 8.35156,-11.45312c3.5,-3.25782 7.63672,-5.84375 12.40625,-7.75391c4.77344,-1.90625 9.94141,-2.86328 15.51172,-2.86328c5.5625,0 10.73438,0.95312 15.50781,2.86328c4.76954,1.91016 8.94532,4.49609 12.52344,7.75391c3.57813,3.26562 6.36328,7.08203 8.35156,11.45312c1.98829,4.37891 2.98438,9.10938 2.98438,14.19922c0,5.08984 -0.99609,9.82031 -2.98438,14.19531c-1.98828,4.37891 -4.77343,8.15235 -8.35156,11.33203c-3.57812,3.1836 -7.7539,5.72656 -12.52344,7.63672c-4.77343,1.91016 -9.94531,2.86328 -15.50781,2.86328zm0,-15.98828c2.38281,0 4.57031,-0.55469 6.5586,-1.66797c1.98828,-1.11328 3.77734,-2.58203 5.37109,-4.41406c1.58594,-1.82812 2.82031,-3.9375 3.69922,-6.32422c0.87109,-2.38672 1.30859,-4.92969 1.30859,-7.63281c0,-2.86328 -0.47656,-5.52735 -1.42969,-7.9961c-0.95312,-2.46093 -2.1875,-4.60937 -3.69921,-6.4414c-1.51172,-1.82422 -3.30469,-3.25781 -5.36719,-4.29297c-2.07031,-1.03516 -4.21875,-1.55078 -6.44141,-1.55078c-2.38672,0 -4.57812,0.55859 -6.5625,1.66797c-1.99219,1.11719 -3.78125,2.58594 -5.37109,4.41406c-1.58985,1.83203 -2.82422,3.98047 -3.69531,6.44141c-0.87891,2.46875 -1.31641,5.05468 -1.31641,7.75781c0,5.57031 1.67187,10.29687 5.01172,14.19531c3.34375,3.89844 7.3164,5.84375 11.93359,5.84375zm0,0" fill="#083734" id="svg_5"/>
  <path d="m337.44141,337.15625c-1.9961,-4.375 -4.77735,-8.1875 -8.35938,-11.44531c-3.57031,-3.26953 -7.75,-5.85156 -12.52734,-7.76172c-4.76563,-1.90235 -9.9375,-2.86328 -15.5,-2.86328c-5.57813,0 -10.73828,0.96094 -15.51563,2.86328c-4.76562,1.91406 -8.90234,4.49219 -12.40234,7.76172c-3.50391,3.25781 -6.28516,7.07031 -8.35156,11.44531c-2.07032,4.37891 -3.10547,9.10547 -3.10547,14.19531c0,5.10157 1.03125,9.82813 3.10547,14.19922c2.0664,4.37891 4.84765,8.15235 8.35156,11.33203c3.5,3.1875 7.63672,5.72657 12.40234,7.64063c4.77735,1.90234 9.9375,2.86328 15.51563,2.86328c5.5625,0 10.73437,-0.96094 15.5,-2.86328c4.77734,-1.91406 8.95703,-4.45313 12.52734,-7.64063c3.58203,-3.17968 6.36328,-6.95312 8.35938,-11.33203c1.98047,-4.37109 2.97265,-9.09765 2.97265,-14.19922c0,-5.08984 -0.99219,-9.8164 -2.97265,-14.19531zm-20.76563,21.83594c-0.87109,2.38672 -2.10547,4.49219 -3.69531,6.32422c-1.59766,1.83203 -3.37891,3.29687 -5.3711,4.41015c-1.99218,1.11328 -4.16796,1.67188 -6.55859,1.67188c-4.61328,0 -8.58984,-1.94532 -11.92969,-5.84766c-3.33984,-3.89844 -5.00781,-8.62109 -5.00781,-14.19922c0,-2.70312 0.43359,-5.28125 1.30469,-7.75c0.8789,-2.46875 2.10547,-4.61328 3.70312,-6.44531c1.58985,-1.82031 3.37891,-3.30078 5.36328,-4.41406c1.99219,-1.11328 4.17969,-1.66797 6.56641,-1.66797c2.22656,0 4.37109,0.51562 6.4375,1.54687c2.0625,1.04297 3.85547,2.46875 5.37109,4.30078c1.50782,1.83204 2.74219,3.97657 3.69532,6.4336c0.96093,2.46875 1.4375,5.13281 1.4375,7.99609c0,2.71094 -0.44532,5.25391 -1.31641,7.64063zm-4.41015,-145.3086l-57.26563,75.31641l0,23.27344l6.67969,-8.64063l65.13281,-77.0664l-14.54687,-12.88282zm0,0" fill="#083734" id="svg_6"/>
  <path fill="none" stroke="null" stroke-width="null" stroke-opacity="null" fill-opacity="null" id="svg_15" d="m1.5,74.484375c0,-2 3.002314,-2.983078 25,-6c29.003067,-3.977692 54.671013,-8.987988 73,-11c2.982086,-0.327351 4,2 4,3l0,6"/>
  <path fill="none" stroke="null" stroke-width="null" stroke-opacity="null" fill-opacity="null" id="svg_16" d="m97.5,82.484375c0,2 -1.738708,6.257446 0,12c3.134499,10.352531 12.930679,18.207832 15,26c1.026672,3.865997 0,6 0,8c0,2 -2,4 -3,5l-1,1"/>
  <path stroke="null" fill="#000000" stroke-width="null" stroke-opacity="null" d="m445.207029,131.512984l-92.508765,113.093195l91.36514,38.852875l-84.448004,121.415279l-34.095061,-20.502812l24.182434,117.030975l96.103336,-51.059904l-40.576371,-21.342797l110.18268,-174.391592l-100.719409,-31.607281l97.260884,-117.844888l-55.479456,-17.693797l60.42544,-74.896587l-22.197743,-1.076374l-93.768322,102.750069l44.273208,17.273673l0.000008,-0.000033l0.000002,-0.000002z" id="svg_19" transform="rotate(-12 421.2101135253908,256.4458923339842) "/>
 </g>
</svg>