<svg xmlns="http://www.w3.org/2000/svg" viewBox="0 0 30 30">
    <path fill="rgba(255, 248, 248, 0.6)" d="M 1.9 17.6 c 0 -1 0.3 -1.9 0.9 -2.6 s 1.4 -1.3 2.4 -1.5 c 0.3 -1.2 0.8 -2.1 1.8 -2.9 c 0.9 -0.8 2 -1.1 3.2 -1.1 c 1.2 0 2.2 0.4 3.2 1.1 c 0.9 0.7 1.5 1.7 1.8 2.8 h 0.3 c 1.2 0 2.2 0.4 3 1.2 s 1.3 1.8 1.3 3 c 0 1.2 -0.4 2.2 -1.3 3 s -1.8 1.3 -3 1.3 H 6.2 c -0.6 0 -1.1 -0.1 -1.6 -0.3 s -1 -0.5 -1.4 -0.9 c -0.4 -0.4 -0.7 -0.8 -0.9 -1.4 s -0.3 -1.1 -0.3 -1.7 z m 1.4 0 c 0 0.8 0.3 1.4 0.8 2 s 1.2 0.8 2 0.8 h 9.3 c 0.8 0 1.4 -0.3 2 -0.8 c 0.6 -0.6 0.8 -1.2 0.8 -2 s -0.3 -1.4 -0.8 -2 c -0.6 -0.5 -1.2 -0.8 -2 -0.8 h -1.4 c -0.1 0 -0.1 -0.1 -0.1 -0.1 l -0.1 -0.5 c -0.1 -0.9 -0.5 -1.7 -1.2 -2.4 s -1.5 -0.9 -2.5 -0.9 c -0.9 0 -1.8 0.3 -2.5 0.9 c -0.7 0.6 -1.1 1.4 -1.2 2.3 l -0.1 0.4 c 0 0.1 -0.1 0.1 -0.2 0.1 l -0.5 0.1 c -0.7 0.1 -1.3 0.4 -1.8 0.9 c -0.5 0.5 -0.7 1.2 -0.7 1.9 z m 8.8 -8.7 c -0.1 0.1 -0.1 0.2 0.1 0.2 c 0.4 0.2 0.8 0.4 1.1 0.6 c 0.1 0 0.2 0 0.2 0 c 0.6 -0.6 1.3 -0.9 2.1 -0.9 s 1.5 0.3 2.1 0.8 c 0.6 0.5 0.9 1.2 1 2 l 0.1 0.6 h 1.4 c 0.7 0 1.2 0.2 1.7 0.7 s 0.7 1 0.7 1.7 c 0 0.6 -0.2 1.1 -0.6 1.6 s -0.9 0.7 -1.5 0.8 c -0.1 0 -0.1 0.1 -0.1 0.2 v 1.1 c 0 0.1 0.1 0.2 0.1 0.2 c 1 -0.1 1.9 -0.5 2.5 -1.2 s 1 -1.6 1 -2.6 c 0 -1.1 -0.4 -2 -1.1 -2.7 c -0.8 -0.8 -1.6 -1.1 -2.7 -1.1 h -0.1 c -0.3 -1 -0.8 -1.8 -1.6 -2.5 c -0.8 -0.7 -1.8 -1 -2.8 -1 c -1.4 0 -2.6 0.5 -3.5 1.6 z"/>
</svg>
