<svg xmlns="http://www.w3.org/2000/svg" viewBox="0 0 30 30">
    <path fill="rgba(255, 255, 255, 0.6)" d="M 4.6 16.9 c 0 -1.2 0.4 -2.2 1.1 -3.1 C 6.4 13 7.4 12.4 8.4 12.1 c 0.3 -1.4 1 -2.5 2.1 -3.4 s 2.3 -1.3 3.8 -1.3 c 1.4 0 2.6 0.4 3.7 1.3 c 1.1 0.8 1.8 1.9 2.1 3.3 h 0.3 c 0.9 0 1.7 0.2 2.5 0.7 s 1.4 1 1.8 1.8 c 0.4 0.8 0.7 1.6 0.7 2.5 c 0 0.9 -0.2 1.7 -0.6 2.4 c -0.4 0.8 -1 1.4 -1.7 1.8 c -0.7 0.4 -1.5 0.7 -2.4 0.7 c -0.1 0 -0.2 -0.1 -0.2 -0.2 v -1.3 c 0 -0.1 0.1 -0.2 0.2 -0.2 c 0.9 0 1.6 -0.4 2.2 -1 s 0.9 -1.4 0.9 -2.3 s -0.3 -1.6 -1 -2.3 s -1.4 -1 -2.3 -1 h -1.6 c -0.1 0 -0.2 -0.1 -0.2 -0.2 l -0.1 -0.6 C 18.4 11.9 17.9 10.9 17.1 10.2 c -0.8 -0.7 -1.8 -1.1 -2.8 -1.1 s -2 0.4 -2.8 1.1 C 10.7 10.9 10.2 11.9 10.1 12.9 l -0.1 0.5 c 0 0.1 -0.1 0.2 -0.2 0.2 l -0.5 0 c -0.8 0.1 -1.5 0.5 -2.1 1.1 s -0.8 1.3 -0.8 2.2 c 0 0.9 0.3 1.6 0.9 2.3 s 1.3 1 2.2 1 c 0.1 0 0.2 0.1 0.2 0.2 v 1.3 c 0 0.1 -0.1 0.2 -0.2 0.2 c -1.3 -0.1 -2.5 -0.6 -3.4 -1.5 s -1.4 -2.1 -1.4 -3.4 z m 5.3 6.7 c 0 0 0 -0.1 0 -0.2 l 1.6 -5.8 C 11.8 17.2 12.2 17 12.7 17.1 c 0.2 0 0.4 0.2 0.5 0.4 c 0.1 0.2 0.2 0.4 0.1 0.7 l -1.6 5.7 c -0.1 0.4 -0.4 0.6 -0.8 0.6 c 0 0 -0.1 0 -0.1 0 c -0.1 0 -0.1 0 -0.1 0 C 10.4 24.4 10.3 24.3 10.1 24.1 C 10 24 10 23.8 10 23.6 z m 2.6 2.8 l 2.4 -8.8 c 0 -0.2 0.1 -0.3 0.3 -0.4 c 0.2 -0.1 0.3 -0.1 0.5 -0.1 c 0.1 0 0.2 0 0.3 0 c 0.2 0.1 0.4 0.2 0.5 0.4 c 0.1 0.2 0.1 0.4 0.1 0.6 l -2.4 8.8 c 0 0.2 -0.1 0.3 -0.3 0.4 c -0.2 0.1 -0.3 0.2 -0.5 0.2 c -0.1 0 -0.2 0 -0.3 -0.1 c -0.2 -0.1 -0.4 -0.2 -0.5 -0.4 c -0.1 -0.2 -0.1 -0.4 -0.1 -0.6 z m 4.1 -2.8 c 0 0 0 -0.1 0 -0.2 l 1.6 -5.8 C 18.5 17.4 18.6 17.3 18.7 17.2 c 0.1 -0.1 0.3 -0.1 0.5 -0.1 c 0.1 0 0.2 0 0.3 0 c 0.2 0.1 0.4 0.2 0.5 0.3 c 0.1 0.1 0.1 0.3 0.1 0.5 c 0 0 0 0.1 0 0.1 s 0 0.1 0 0.1 l -1.6 5.7 c 0 0.2 -0.1 0.4 -0.3 0.5 s -0.3 0.2 -0.5 0.2 l -0.2 -0.1 C 17.2 24.4 17 24.2 16.9 24.1 C 16.8 23.9 16.7 23.8 16.7 23.6 z"/>
</svg>
