<svg xmlns="http://www.w3.org/2000/svg" viewBox="0 0 30 30">
    <path fill="rgba(255, 255, 255, 0.6)" d="M 4.6 16.9 c 0 -1.2 0.3 -2.2 1.1 -3.1 s 1.6 -1.5 2.7 -1.8 c 0.3 -1.4 1 -2.5 2.1 -3.4 s 2.3 -1.3 3.8 -1.3 c 1.4 0 2.6 0.4 3.7 1.3 c 1.1 0.8 1.8 1.9 2.1 3.3 h 0.3 c 0.9 0 1.7 0.2 2.5 0.7 c 0.8 0.4 1.4 1 1.8 1.8 c 0.4 0.8 0.7 1.6 0.7 2.5 c 0 1.3 -0.5 2.5 -1.4 3.4 c -0.9 1 -2 1.5 -3.4 1.5 c -0.1 0 -0.2 -0.1 -0.2 -0.2 v -1.3 c 0 -0.1 0.1 -0.2 0.2 -0.2 c 0.8 0 1.6 -0.4 2.2 -1 s 0.9 -1.4 0.9 -2.2 c 0 -0.9 -0.3 -1.6 -1 -2.3 s -1.4 -1 -2.3 -1 h -1.6 c -0.1 0 -0.2 -0.1 -0.2 -0.2 l -0.1 -0.6 c -0.1 -1.1 -0.6 -2 -1.4 -2.7 c -0.8 -0.7 -1.8 -1.1 -2.9 -1.1 c -1.1 0 -2 0.4 -2.9 1.1 c -0.8 0.7 -1.3 1.6 -1.4 2.8 l -0.1 0.5 c 0 0.1 -0.1 0.2 -0.2 0.2 l -0.5 0.1 c -0.8 0.1 -1.5 0.4 -2.1 1 s -0.8 1.4 -0.8 2.2 c 0 0.8 0.3 1.6 0.9 2.2 s 1.3 1 2.2 1 c 0.1 0 0.2 0.1 0.2 0.2 v 1.3 c 0 0.1 -0.1 0.2 -0.2 0.2 c -1.3 0 -2.5 -0.5 -3.4 -1.5 c -0.9 -1 -1.3 -2.1 -1.3 -3.4 z M 11 21 c 0 -0.2 0.1 -0.4 0.2 -0.6 c 0.2 -0.2 0.3 -0.2 0.6 -0.2 c 0.2 0 0.4 0.1 0.6 0.2 c 0.2 0.2 0.2 0.4 0.2 0.6 c 0 0.2 -0.1 0.4 -0.2 0.6 c -0.2 0.2 -0.3 0.3 -0.6 0.3 c -0.2 0 -0.4 -0.1 -0.6 -0.3 a 0.8 0.8 0 0 1 -0.2 -0.6 z m 0 3.6 c 0 -0.2 0.1 -0.4 0.2 -0.6 c 0.2 -0.1 0.3 -0.2 0.6 -0.2 c 0.2 0 0.4 0.1 0.6 0.2 c 0.2 0.2 0.2 0.3 0.2 0.6 s -0.1 0.4 -0.2 0.6 c -0.2 0.2 -0.3 0.2 -0.6 0.2 a 0.8 0.8 0 0 1 -0.6 -0.2 a 0.8 0.8 0 0 1 -0.2 -0.6 z m 3.2 -1.7 c 0 -0.2 0.1 -0.4 0.3 -0.6 c 0.2 -0.2 0.3 -0.2 0.6 -0.2 c 0.2 0 0.4 0.1 0.6 0.3 c 0.2 0.2 0.3 0.4 0.3 0.6 c 0 0.2 -0.1 0.4 -0.3 0.6 c -0.2 0.2 -0.4 0.3 -0.6 0.3 c -0.2 0 -0.4 -0.1 -0.6 -0.3 s -0.2 -0.4 -0.2 -0.6 z m 0 -3.6 c 0 -0.2 0.1 -0.4 0.3 -0.6 c 0.2 -0.2 0.4 -0.2 0.6 -0.2 c 0.2 0 0.4 0.1 0.6 0.3 a 0.8 0.8 0 0 1 0.3 0.6 c 0 0.2 -0.1 0.4 -0.3 0.6 c -0.2 0.2 -0.4 0.2 -0.6 0.2 c -0.2 0 -0.4 -0.1 -0.6 -0.2 a 0.8 0.8 0 0 1 -0.2 -0.6 z m 0 7.3 c 0 -0.2 0.1 -0.4 0.3 -0.6 c 0.2 -0.2 0.3 -0.2 0.6 -0.2 c 0.2 0 0.4 0.1 0.6 0.3 c 0.2 0.2 0.3 0.4 0.3 0.6 s -0.1 0.4 -0.3 0.6 c -0.2 0.2 -0.4 0.2 -0.6 0.2 a 0.8 0.8 0 0 1 -0.8 -0.8 z m 3.2 -5.6 c 0 -0.2 0.1 -0.4 0.3 -0.6 c 0.2 -0.2 0.4 -0.3 0.6 -0.3 c 0.2 0 0.4 0.1 0.6 0.2 c 0.2 0.2 0.2 0.4 0.2 0.6 c 0 0.2 -0.1 0.4 -0.2 0.6 c -0.2 0.2 -0.3 0.3 -0.6 0.3 s -0.4 -0.1 -0.6 -0.3 a 0.8 0.8 0 0 1 -0.3 -0.6 z m 0 3.6 c 0 -0.2 0.1 -0.4 0.3 -0.6 c 0.2 -0.1 0.4 -0.2 0.6 -0.2 s 0.4 0.1 0.6 0.2 s 0.2 0.3 0.2 0.6 s -0.1 0.4 -0.2 0.6 c -0.2 0.2 -0.3 0.2 -0.6 0.2 s -0.4 -0.1 -0.6 -0.2 a 0.8 0.8 0 0 1 -0.3 -0.6 z"/>
</svg>
