<svg xmlns="http://www.w3.org/2000/svg" viewBox="0 0 30 30">
    <path fill="rgba(255, 255, 255, 0.6)" d="M 4.6 14.9 c 0 1.1 0.3 2.1 1 3 s 1.5 1.5 2.6 1.8 l -0.7 1.7 c 0 0.1 0 0.2 0.1 0.2 h 2.1 l -1 4.3 h 0.3 l 3.9 -5.8 c 0 0 0 -0.1 0 -0.1 c 0 -0.1 -0.1 -0.1 -0.2 -0.1 h -2.2 l 2.5 -4.6 c 0.1 -0.1 0 -0.2 -0.1 -0.2 h -2.9 c -0.1 0 -0.2 0.1 -0.2 0.1 l -1.1 2.9 c -0.7 -0.2 -1.3 -0.6 -1.8 -1.2 s -0.7 -1.3 -0.7 -2 c 0 -0.8 0.3 -1.6 0.8 -2.2 c 0.6 -0.6 1.3 -1 2.1 -1.1 l 0.5 -0.1 c 0.1 0 0.2 -0.1 0.2 -0.2 l 0.1 -0.5 c 0.1 -1.1 0.6 -2 1.4 -2.7 c 0.8 -0.7 1.8 -1.1 2.8 -1.1 s 2 0.4 2.8 1.1 c 0.8 0.7 1.3 1.6 1.4 2.7 l 0.1 0.6 c 0 0.1 0.1 0.2 0.2 0.2 h 1.6 c 0.9 0 1.7 0.3 2.3 0.9 c 0.6 0.6 1 1.4 1 2.3 c 0 0.9 -0.3 1.6 -0.9 2.2 c -0.6 0.6 -1.3 1 -2.2 1 c -0.1 0 -0.2 0.1 -0.2 0.2 v 1.4 c 0 0.1 0.1 0.2 0.2 0.2 c 1.3 0 2.5 -0.6 3.4 -1.5 s 1.4 -2.1 1.4 -3.4 c 0 -0.9 -0.2 -1.7 -0.7 -2.5 C 24.3 11.7 23.7 11 22.9 10.6 c -0.8 -0.4 -1.6 -0.7 -2.5 -0.7 h -0.3 c -0.3 -1.3 -1 -2.4 -2.1 -3.3 s -2.3 -1.3 -3.7 -1.3 c -1.4 0 -2.7 0.4 -3.8 1.3 s -1.8 2 -2.1 3.4 c -1.1 0.3 -2 0.8 -2.7 1.7 s -1.1 1.9 -1.1 3.1 z m 8.1 9.7 c 0 0.4 0.2 0.6 0.6 0.8 c 0 0 0.1 0 0.1 0 s 0.1 0 0.1 0 c 0.2 0 0.3 -0.1 0.5 -0.1 c 0.2 -0.1 0.3 -0.3 0.3 -0.5 l 2.3 -8.7 c 0.1 -0.2 0 -0.4 -0.1 -0.6 C 16.5 15.2 16.3 15.1 16.1 15.1 l -0.3 0 c -0.2 0 -0.3 0.1 -0.5 0.1 C 15.2 15.3 15.1 15.4 15 15.6 l -2.3 8.7 c 0 0.1 0 0.2 0 0.3 z m 4.2 -3.1 c 0 0.1 0 0.3 0.1 0.4 c 0.1 0.2 0.3 0.4 0.5 0.4 c 0.1 0 0.2 0.1 0.3 0.1 s 0.2 0 0.3 -0.1 c 0.2 -0.1 0.4 -0.3 0.4 -0.6 l 1.4 -5.7 c 0 -0.1 0.1 -0.2 0.1 -0.3 c 0 -0.1 -0.1 -0.3 -0.2 -0.4 s -0.3 -0.3 -0.5 -0.3 l -0.3 0 c -0.2 0 -0.3 0.1 -0.5 0.1 C 18.6 15.3 18.5 15.5 18.4 15.6 l -1.5 5.7 c 0 0 0 0.1 0 0.1 c 0 0.1 0 0.1 0 0.1 z"/>
</svg>
